<svg xmlns="http://www.w3.org/2000/svg" xmlns:xlink="http://www.w3.org/1999/xlink" width="1199" height="400" viewBox="0 0 1199 400">
    <defs>
        <linearGradient id="b" x1="50%" x2="50%" y1="100%" y2="0%">
            <stop offset="0%" stop-color="#FFF" stop-opacity="0"/>
            <stop offset="100%" stop-color="#FFF"/>
        </linearGradient>
        <path id="a" d="M0 0h1200v400H0z"/>
    </defs>
    <g fill="none" fill-rule="evenodd">
        <mask id="c" fill="#fff">
            <use xlink:href="#a"/>
        </mask>
        <use fill="url(#b)" xlink:href="#a"/>
        <g stroke="#2C2C2C" mask="url(#c)" opacity=".07">
            <path stroke-linecap="round" stroke-linejoin="round" stroke-width="2.35" d="M370.687 203.694h-9.765v-5.093h-5.58v5.093h-9.766v-5.093h-5.115v-9.723h5.115v-5.093h5.115v-5.093h5.115v-5.094h4.65v5.094h5.116v5.093h5.115v5.093h5.115v9.723h-5.115zM144.84 168.907h15.625v8.149h8.928v-8.15h15.625v8.15h8.185v15.557h-8.185v8.149h-8.184v8.149h-8.185v8.149h-7.44v-8.15h-8.185v-8.148h-8.184v-8.15h-8.185v-15.556h8.185zM81.027 127.69l-3.173 1.66a1.175 1.175 0 0 1-1.703-1.24l.604-3.504a1.175 1.175 0 0 0-.34-1.042l-2.553-2.478a1.175 1.175 0 0 1 .65-2.006l3.537-.512c.383-.055.713-.295.885-.64l1.585-3.2a1.175 1.175 0 0 1 2.106 0l1.586 3.2c.171.345.502.585.884.64l3.537.512a1.175 1.175 0 0 1 .65 2.006l-2.553 2.478c-.278.27-.405.66-.34 1.042l.604 3.504a1.175 1.175 0 0 1-1.703 1.24l-3.173-1.66a1.175 1.175 0 0 0-1.09 0zM13.592 18.604l-3.173 1.661a1.175 1.175 0 0 1-1.703-1.24l.603-3.504a1.175 1.175 0 0 0-.34-1.043l-2.552-2.477a1.175 1.175 0 0 1 .65-2.007l3.537-.511c.382-.056.713-.295.884-.641l1.586-3.199a1.175 1.175 0 0 1 2.106 0l1.585 3.199c.172.346.502.585.885.64l3.536.512a1.175 1.175 0 0 1 .65 2.007l-2.552 2.477c-.278.27-.406.66-.34 1.043l.604 3.503a1.175 1.175 0 0 1-1.703 1.241l-3.173-1.66a1.175 1.175 0 0 0-1.09 0zM355.23 300.115l-3.173 1.66a1.175 1.175 0 0 1-1.703-1.24l.604-3.503a1.175 1.175 0 0 0-.34-1.043l-2.552-2.477a1.175 1.175 0 0 1 .65-2.007l3.536-.511c.383-.056.713-.295.885-.641l1.585-3.2a1.175 1.175 0 0 1 2.106 0l1.586 3.2c.171.346.502.585.884.64l3.537.512a1.175 1.175 0 0 1 .65 2.007l-2.552 2.477c-.279.27-.406.66-.34 1.043l.603 3.503a1.175 1.175 0 0 1-1.703 1.24l-3.173-1.66a1.175 1.175 0 0 0-1.09 0zM436.517 376.358l-3.173 1.66a1.175 1.175 0 0 1-1.703-1.24l.603-3.504a1.175 1.175 0 0 0-.34-1.042l-2.552-2.478a1.175 1.175 0 0 1 .65-2.006l3.537-.512c.382-.055.713-.295.884-.64l1.586-3.2a1.175 1.175 0 0 1 2.106 0l1.585 3.2c.172.345.502.585.885.64l3.536.512a1.175 1.175 0 0 1 .65 2.006l-2.552 2.478c-.278.27-.406.66-.34 1.042l.604 3.504a1.175 1.175 0 0 1-1.703 1.24l-3.173-1.66a1.175 1.175 0 0 0-1.09 0zM573.172 411.546L570 413.207a1.175 1.175 0 0 1-1.703-1.24l.604-3.504a1.175 1.175 0 0 0-.34-1.042l-2.553-2.478a1.175 1.175 0 0 1 .65-2.006l3.537-.512c.383-.055.713-.295.885-.641l1.585-3.199a1.175 1.175 0 0 1 2.106 0l1.586 3.199c.171.346.502.586.884.641l3.537.512a1.175 1.175 0 0 1 .65 2.006l-2.553 2.478c-.278.27-.405.66-.34 1.042l.604 3.504a1.175 1.175 0 0 1-1.703 1.24l-3.173-1.66a1.175 1.175 0 0 0-1.09 0zM154.96 71.387l-3.173 1.661a1.175 1.175 0 0 1-1.704-1.24l.604-3.504a1.175 1.175 0 0 0-.34-1.043l-2.552-2.477a1.175 1.175 0 0 1 .65-2.006l3.537-.512c.382-.055.713-.295.884-.641l1.586-3.199a1.175 1.175 0 0 1 2.105 0l1.586 3.199c.171.346.502.586.884.641l3.537.512a1.175 1.175 0 0 1 .65 2.006l-2.552 2.477c-.279.27-.406.66-.34 1.043l.603 3.504a1.175 1.175 0 0 1-1.703 1.24l-3.173-1.66a1.175 1.175 0 0 0-1.09 0zM304.574 152.322l-3.173 1.66a1.175 1.175 0 0 1-1.703-1.24l.603-3.503a1.175 1.175 0 0 0-.34-1.043l-2.552-2.478a1.175 1.175 0 0 1 .65-2.006l3.537-.512c.382-.055.713-.295.884-.64l1.586-3.2a1.175 1.175 0 0 1 2.105 0l1.586 3.2c.172.345.502.585.885.64l3.536.512a1.175 1.175 0 0 1 .65 2.006l-2.552 2.478c-.279.27-.406.66-.34 1.043l.604 3.503a1.175 1.175 0 0 1-1.703 1.24l-3.173-1.66a1.175 1.175 0 0 0-1.09 0zM610.29 142.313l-3.173 1.66a1.175 1.175 0 0 1-1.703-1.24l.604-3.503a1.175 1.175 0 0 0-.34-1.043l-2.553-2.477a1.175 1.175 0 0 1 .65-2.007l3.537-.511c.383-.056.713-.295.885-.642l1.585-3.198a1.175 1.175 0 0 1 2.106 0l1.586 3.198c.171.347.502.586.884.642l3.537.511a1.175 1.175 0 0 1 .65 2.007l-2.553 2.477c-.278.27-.405.66-.34 1.043l.604 3.503a1.175 1.175 0 0 1-1.703 1.24l-3.173-1.66a1.175 1.175 0 0 0-1.09 0zM286.903 26.815l-3.173 1.66a1.175 1.175 0 0 1-1.703-1.24l.603-3.503a1.175 1.175 0 0 0-.34-1.043l-2.552-2.478a1.175 1.175 0 0 1 .65-2.006l3.537-.512c.382-.055.713-.295.884-.64l1.586-3.2a1.175 1.175 0 0 1 2.106 0l1.585 3.2c.172.345.502.585.885.64l3.536.512a1.175 1.175 0 0 1 .65 2.006l-2.552 2.478c-.279.27-.406.66-.34 1.043l.604 3.503a1.175 1.175 0 0 1-1.703 1.24l-3.173-1.66a1.175 1.175 0 0 0-1.09 0zM576.392 58.086l-3.173 1.66a1.175 1.175 0 0 1-1.703-1.24l.603-3.503a1.175 1.175 0 0 0-.34-1.043l-2.552-2.478a1.175 1.175 0 0 1 .65-2.006l3.537-.512c.382-.055.713-.295.884-.64l1.586-3.2a1.175 1.175 0 0 1 2.105 0l1.586 3.2c.171.345.502.585.885.64l3.536.512a1.175 1.175 0 0 1 .65 2.006l-2.552 2.478c-.279.27-.406.66-.34 1.043l.604 3.503a1.175 1.175 0 0 1-1.703 1.24l-3.173-1.66a1.175 1.175 0 0 0-1.09 0zM220.931 363.455l-3.173 1.66a1.175 1.175 0 0 1-1.703-1.24l.604-3.503a1.175 1.175 0 0 0-.34-1.043l-2.553-2.477a1.175 1.175 0 0 1 .65-2.007l3.537-.511c.382-.056.713-.295.885-.642l1.585-3.198a1.175 1.175 0 0 1 2.106 0l1.585 3.198c.172.347.503.586.885.642l3.537.511a1.175 1.175 0 0 1 .65 2.007l-2.553 2.477c-.278.27-.405.66-.34 1.043l.604 3.503a1.175 1.175 0 0 1-1.703 1.24l-3.173-1.66a1.175 1.175 0 0 0-1.09 0zM185.59 283.512l-1.718.9a1.175 1.175 0 0 1-1.703-1.241l.326-1.89a1.175 1.175 0 0 0-.34-1.042l-1.375-1.334a1.175 1.175 0 0 1 .65-2.007l1.91-.276c.382-.055.712-.295.884-.64l.857-1.73a1.175 1.175 0 0 1 2.106 0l.857 1.73c.172.345.503.585.885.64l1.909.276a1.175 1.175 0 0 1 .65 2.007l-1.375 1.334c-.278.27-.405.66-.34 1.043l.326 1.889a1.175 1.175 0 0 1-1.703 1.24l-1.717-.899a1.175 1.175 0 0 0-1.09 0zM467.699 10.529l24.933 10.584h-16.976v10.585l-24.403-10.585H467.7zM21.212 131.344l24.934 10.584H29.17v10.585L4.767 141.928h16.445zM230.9 240.716l10.603-24.891v16.947h10.603l-10.603 24.362v-16.418zM533.951 302.181l25.128-10.116-12.004 11.983 7.497 7.485-24.752 9.741 11.629-11.609zM884.847 256.998l10.602-24.891v16.947h10.603l-10.603 24.361v-16.417zM96.609 323.71l24.933 10.584h-16.976v10.585l-24.403-10.585H96.61zM245.045 387.05l24.933 10.584h-16.976v10.585L228.6 397.634h16.446zM508.908 69.189v15.68h-11.75V69.19c0-5.489 4.309-9.409 5.875-9.409 1.567 0 5.875 4.704 5.875 9.409z"/>
            <path stroke-linecap="round" stroke-linejoin="round" stroke-width="2.35" d="M508.908 84.462v9.409h-11.75v-9.409zM508.912 74.675h-2.35M160.217 120.815h-15.708v-11.73h15.708c5.497 0 9.424 4.301 9.424 5.865s-4.712 5.865-9.424 5.865z"/>
            <path stroke-linecap="round" stroke-linejoin="round" stroke-width="2.35" d="M144.902 120.816h-9.425v-11.73h9.425zM150.498 120.815v-5.474M154.72 120.815v-2.346M34.768 390.026v-15.681h11.75v15.681c0 5.488-4.308 9.409-5.875 9.409-1.566 0-5.875-4.705-5.875-9.409z"/>
            <path stroke-linecap="round" stroke-linejoin="round" stroke-width="2.35" d="M34.768 374.753v-9.409h11.75v9.409zM34.764 384.54h2.35M559.58 249.841h-15.707v-11.73h15.707c5.498 0 9.425 4.301 9.425 5.865s-4.712 5.865-9.425 5.865z"/>
            <path stroke-linecap="round" stroke-linejoin="round" stroke-width="2.35" d="M544.266 249.841h-9.425v-11.73h9.425zM549.861 249.841v-5.474M554.083 249.841v-2.346M343.995 72.724h-15.708v-11.73h15.708c5.497 0 9.424 4.3 9.424 5.865 0 1.564-4.712 5.865-9.424 5.865z"/>
            <path stroke-linecap="round" stroke-linejoin="round" stroke-width="2.35" d="M328.68 72.724h-9.425v-11.73h9.425zM334.276 72.724V67.25M338.497 72.724v-2.346M796.995 312.318h-15.708v-11.73h15.708c5.497 0 9.424 4.3 9.424 5.865 0 1.564-4.712 5.865-9.424 5.865z"/>
            <path stroke-linecap="round" stroke-linejoin="round" stroke-width="2.35" d="M781.68 312.318h-9.425v-11.73h9.425zM787.276 312.318v-5.474M791.497 312.318v-2.346M74.234 194.728v-15.681h11.75v15.68c0 5.49-4.309 9.41-5.876 9.41-1.566 0-5.874-4.705-5.874-9.41z"/>
            <path stroke-linecap="round" stroke-linejoin="round" stroke-width="2.35" d="M74.234 179.454v-9.408h11.75v9.408zM74.23 189.242h2.35M258.596 335.862h2.35"/>
            <ellipse cx="41.232" cy="338.986" stroke-linecap="round" stroke-linejoin="round" stroke-width="2.35" rx="3.534" ry="3.519"/>
            <ellipse cx="395.83" cy="11.73" stroke-linecap="round" stroke-linejoin="round" stroke-width="2.35" rx="3.534" ry="3.519"/>
            <ellipse cx="130.765" cy="213.479" stroke-linecap="round" stroke-linejoin="round" stroke-width="2.35" rx="3.534" ry="3.519"/>
            <ellipse cx="286.27" cy="204.095" stroke-linecap="round" stroke-linejoin="round" stroke-width="2.35" rx="2.356" ry="2.346"/>
            <ellipse cx="55.369" cy="104.394" stroke-linecap="round" stroke-linejoin="round" stroke-width="2.35" rx="2.356" ry="2.346"/>
            <ellipse cx="315.721" cy="114.95" stroke-linecap="round" stroke-linejoin="round" stroke-width="2.35" rx="2.356" ry="2.346"/>
            <ellipse cx="261.53" cy="11.73" stroke-linecap="round" stroke-linejoin="round" stroke-width="2.35" rx="2.356" ry="2.346"/>
            <ellipse cx="285.092" cy="174.771" stroke-linecap="round" stroke-linejoin="round" stroke-width="2.35" rx="2.356" ry="2.346"/>
            <ellipse cx="54.191" cy="193.539" stroke-linecap="round" stroke-linejoin="round" stroke-width="2.35" rx="2.356" ry="2.346"/>
            <ellipse cx="179.066" cy="24.632" stroke-linecap="round" stroke-linejoin="round" stroke-width="2.35" rx="3.534" ry="3.519"/>
            <ellipse cx="356.953" cy="97.356" stroke-linecap="round" stroke-linejoin="round" stroke-width="2.35" rx="3.534" ry="3.519"/>
            <ellipse cx="564.293" cy="361.272" stroke-linecap="round" stroke-linejoin="round" stroke-width="2.35" rx="3.534" ry="3.519"/>
            <ellipse cx="422.925" cy="342.505" stroke-linecap="round" stroke-linejoin="round" stroke-width="2.35" rx="3.534" ry="3.519"/>
            <ellipse cx="404.076" cy="50.437" stroke-linecap="round" stroke-linejoin="round" stroke-width="2.35" rx="3.534" ry="3.519"/>
            <ellipse cx="390.576" cy="161.544" stroke-linecap="round" stroke-linejoin="round" stroke-width="2.35" rx="3.534" ry="3.519"/>
            <ellipse cx="371.09" cy="266.262" stroke-linecap="round" stroke-linejoin="round" stroke-width="2.35" rx="3.534" ry="3.519"/>
            <ellipse cx="305.119" cy="51.61" stroke-linecap="round" stroke-linejoin="round" stroke-width="2.35" rx="3.534" ry="3.519"/>
            <ellipse cx="31.808" cy="73.897" stroke-linecap="round" stroke-linejoin="round" stroke-width="2.35" rx="2.356" ry="2.346"/>
            <ellipse cx="121.341" cy="9.384" stroke-linecap="round" stroke-linejoin="round" stroke-width="2.35" rx="2.356" ry="2.346"/>
            <ellipse cx="504.211" cy="2.346" stroke-linecap="round" stroke-linejoin="round" stroke-width="2.35" rx="2.356" ry="2.346"/>
            <ellipse cx="590.21" cy="96.183" stroke-linecap="round" stroke-linejoin="round" stroke-width="2.35" rx="2.356" ry="2.346"/>
            <ellipse cx="585.498" cy="238.111" stroke-linecap="round" stroke-linejoin="round" stroke-width="2.35" rx="2.356" ry="2.346"/>
            <ellipse cx="501.855" cy="140.755" stroke-linecap="round" stroke-linejoin="round" stroke-width="2.35" rx="2.356" ry="2.346"/>
            <ellipse cx="539.553" cy="46.918" stroke-linecap="round" stroke-linejoin="round" stroke-width="2.35" rx="2.356" ry="2.346"/>
            <ellipse cx="493.294" cy="308.763" stroke-linecap="round" stroke-linejoin="round" stroke-width="2.35" rx="2.356" ry="2.346"/>
            <ellipse cx="393.473" cy="380.04" stroke-linecap="round" stroke-linejoin="round" stroke-width="2.35" rx="3.534" ry="3.519"/>
            <ellipse cx="310.687" cy="312.731" stroke-linecap="round" stroke-linejoin="round" stroke-width="2.35" rx="3.534" ry="3.519"/>
            <ellipse cx="134.888" cy="4.105" fill="#707070" stroke-width="1.175" rx="1.767" ry="1.759"/>
            <ellipse cx="312.776" cy="7.624" fill="#707070" stroke-width="1.175" rx="1.767" ry="1.759"/>
            <ellipse cx="232.668" cy="1.759" fill="#707070" stroke-width="1.175" rx="1.767" ry="1.759"/>
            <ellipse cx="224.421" cy="52.197" fill="#707070" stroke-width="1.175" rx="1.767" ry="1.759"/>
            <ellipse cx="180.833" cy="61.581" fill="#707070" stroke-width="1.175" rx="1.767" ry="1.759"/>
            <ellipse cx="337.515" cy="4.105" fill="#707070" stroke-width="1.175" rx="1.767" ry="1.759"/>
            <ellipse cx="571.95" cy="74.483" fill="#707070" stroke-width="1.175" rx="1.767" ry="1.759"/>
            <ellipse cx="305.708" cy="31.083" fill="#707070" stroke-width="1.175" rx="1.767" ry="1.759"/>
            <ellipse cx="369.323" cy="53.37" fill="#707070" stroke-width="1.175" rx="1.767" ry="1.759"/>
            <ellipse cx="425.87" cy="6.451" fill="#707070" stroke-width="1.175" rx="1.767" ry="1.759"/>
            <ellipse cx="418.802" cy="42.813" fill="#707070" stroke-width="1.175" rx="1.767" ry="1.759"/>
            <ellipse cx="457.678" cy="52.197" fill="#707070" stroke-width="1.175" rx="1.767" ry="1.759"/>
            <ellipse cx="487.13" cy="100.288" fill="#707070" stroke-width="1.175" rx="1.767" ry="1.759"/>
            <ellipse cx="590.799" cy="6.451" fill="#707070" stroke-width="1.175" rx="1.767" ry="1.759"/>
            <ellipse cx="571.95" cy="15.835" fill="#707070" stroke-width="1.175" rx="1.767" ry="1.759"/>
            <ellipse cx="575.484" cy="126.093" fill="#707070" stroke-width="1.175" rx="1.767" ry="1.759"/>
            <ellipse cx="524.828" cy="73.31" fill="#707070" stroke-width="1.175" rx="1.767" ry="1.759"/>
            <ellipse cx="528.362" cy="109.672" fill="#707070" stroke-width="1.175" rx="1.767" ry="1.759"/>
            <ellipse cx="305.708" cy="81.521" fill="#707070" stroke-width="1.175" rx="1.767" ry="1.759"/>
            <ellipse cx="323.379" cy="180.05" fill="#707070" stroke-width="1.175" rx="1.767" ry="1.759"/>
            <ellipse cx="329.269" cy="146.034" fill="#707070" stroke-width="1.175" rx="1.767" ry="1.759"/>
            <ellipse cx="206.75" cy="202.336" fill="#707070" stroke-width="1.175" rx="1.767" ry="1.759"/>
            <ellipse cx="211.463" cy="144.861" fill="#707070" stroke-width="1.175" rx="1.767" ry="1.759"/>
            <ellipse cx="191.435" cy="151.899" fill="#707070" stroke-width="1.175" rx="1.767" ry="1.759"/>
            <ellipse cx="276.256" cy="95.596" fill="#707070" stroke-width="1.175" rx="1.767" ry="1.759"/>
            <ellipse cx="12.37" cy="101.461" fill="#707070" stroke-width="1.175" rx="1.767" ry="1.759"/>
            <ellipse cx="88.944" cy="18.181" fill="#707070" stroke-width="1.175" rx="1.767" ry="1.759"/>
            <ellipse cx="53.602" cy="8.797" fill="#707070" stroke-width="1.175" rx="1.767" ry="1.759"/>
            <ellipse cx="20.616" cy="38.121" fill="#707070" stroke-width="1.175" rx="1.767" ry="1.759"/>
            <ellipse cx="136.066" cy="34.602" fill="#707070" stroke-width="1.175" rx="1.767" ry="1.759"/>
            <ellipse cx="144.313" cy="90.905" fill="#707070" stroke-width="1.175" rx="1.767" ry="1.759"/>
            <ellipse cx="93.656" cy="81.521" fill="#707070" stroke-width="1.175" rx="1.767" ry="1.759"/>
            <ellipse cx="121.93" cy="137.823" fill="#707070" stroke-width="1.175" rx="1.767" ry="1.759"/>
            <ellipse cx="366.967" cy="154.245" fill="#707070" stroke-width="1.175" rx="1.767" ry="1.759"/>
            <ellipse cx="8.835" cy="297.346" fill="#707070" stroke-width="1.175" rx="1.767" ry="1.759"/>
            <ellipse cx="143.135" cy="320.805" fill="#707070" stroke-width="1.175" rx="1.767" ry="1.759"/>
            <ellipse cx="199.682" cy="386.491" fill="#707070" stroke-width="1.175" rx="1.767" ry="1.759"/>
            <ellipse cx="60.67" cy="351.302" fill="#707070" stroke-width="1.175" rx="1.767" ry="1.759"/>
            <ellipse cx="2.945" cy="230.487" fill="#707070" stroke-width="1.175" rx="1.767" ry="1.759"/>
            <ellipse cx="435.295" cy="250.427" fill="#707070" stroke-width="1.175" rx="1.767" ry="1.759"/>
            <ellipse cx="258.585" cy="197.644" fill="#707070" stroke-width="1.175" rx="1.767" ry="1.759"/>
            <ellipse cx="264.475" cy="243.39" fill="#707070" stroke-width="1.175" rx="1.767" ry="1.759"/>
            <ellipse cx="206.161" cy="243.976" fill="#707070" stroke-width="1.175" rx="2.356" ry="2.346"/>
            <ellipse cx="93.067" cy="153.658" fill="#707070" stroke-width="1.175" rx="2.356" ry="2.346"/>
            <ellipse cx="102.492" cy="209.96" fill="#707070" stroke-width="1.175" rx="2.356" ry="2.346"/>
            <ellipse cx="159.039" cy="249.841" fill="#707070" stroke-width="1.175" rx="2.356" ry="2.346"/>
            <ellipse cx="149.614" cy="285.03" fill="#707070" stroke-width="1.175" rx="2.356" ry="2.346"/>
            <ellipse cx="355.186" cy="224.622" fill="#707070" stroke-width="1.175" rx="1.767" ry="1.759"/>
            <ellipse cx="232.668" cy="115.537" fill="#707070" stroke-width="1.175" rx="1.767" ry="1.759"/>
            <ellipse cx="391.706" cy="215.239" fill="#707070" stroke-width="1.175" rx="1.767" ry="1.759"/>
            <ellipse cx="455.322" cy="300.865" fill="#707070" stroke-width="1.175" rx="1.767" ry="1.759"/>
            <ellipse cx="442.363" cy="236.352" fill="#707070" stroke-width="1.175" rx="1.767" ry="1.759"/>
            <ellipse cx="470.637" cy="198.817" fill="#707070" stroke-width="1.175" rx="1.767" ry="1.759"/>
            <ellipse cx="440.007" cy="184.742" fill="#707070" stroke-width="1.175" rx="1.767" ry="1.759"/>
            <ellipse cx="518.937" cy="265.676" fill="#707070" stroke-width="1.175" rx="1.767" ry="1.759"/>
            <ellipse cx="504.8" cy="223.449" fill="#707070" stroke-width="1.175" rx="1.767" ry="1.759"/>
            <ellipse cx="574.306" cy="197.644" fill="#707070" stroke-width="1.175" rx="1.767" ry="1.759"/>
            <ellipse cx="591.977" cy="317.286" fill="#707070" stroke-width="1.175" rx="1.767" ry="1.759"/>
            <ellipse cx="952.84" cy="314.342" fill="#707070" stroke-width="1.175" rx="1.767" ry="1.759"/>
            <ellipse cx="377.57" cy="347.783" fill="#707070" stroke-width="1.175" rx="1.767" ry="1.759"/>
            <ellipse cx="321.022" cy="357.167" fill="#707070" stroke-width="1.175" rx="1.767" ry="1.759"/>
            <ellipse cx="283.324" cy="366.551" fill="#707070" stroke-width="1.175" rx="1.767" ry="1.759"/>
            <ellipse cx="351.652" cy="116.71" fill="#707070" stroke-width="1.175" rx="1.767" ry="1.759"/>
            <ellipse cx="480.061" cy="130.785" fill="#707070" stroke-width="1.175" rx="1.767" ry="1.759"/>
            <ellipse cx="495.376" cy="399.394" fill="#707070" stroke-width="1.175" rx="1.767" ry="1.759"/>
            <ellipse cx="252.695" cy="282.097" fill="#707070" stroke-width="1.175" rx="1.767" ry="1.759"/>
            <ellipse cx="11.192" cy="181.223" fill="#707070" stroke-width="1.175" rx="1.767" ry="1.759"/>
            <ellipse cx="39.465" cy="204.682" fill="#707070" stroke-width="1.175" rx="1.767" ry="1.759"/>
            <ellipse cx="11.781" cy="357.753" stroke-linecap="round" stroke-linejoin="round" stroke-width="2.35" rx="2.356" ry="2.346"/>
            <ellipse cx="534.252" cy="9.97" fill="#707070" stroke-width="1.175" rx="1.767" ry="1.759"/>
            <path stroke-linecap="round" stroke-linejoin="round" stroke-width="2.35" d="M171.255 324.528v11.209c11.286 3.028 19.591 13.29 19.591 25.484 0 14.576-11.867 26.392-26.506 26.392-14.64 0-26.506-11.816-26.506-26.392 0-12.194 8.305-22.456 19.591-25.484v-11.209h-1.107a2.35 2.35 0 0 1-2.35-2.35v-2.21a2.35 2.35 0 0 1 2.35-2.35h16.044a2.35 2.35 0 0 1 2.35 2.35v2.21a2.35 2.35 0 0 1-2.35 2.35h-1.107z"/>
            <path stroke-linecap="round" stroke-linejoin="round" stroke-width="2.35" d="M137.834 361.795c7.683-6.885 16.518-8.415 26.506-4.59 9.988 3.825 17.287.574 21.897-9.753"/>
            <ellipse cx="153.392" cy="367.532" stroke-linecap="round" stroke-linejoin="round" stroke-width="2.35" rx="4.034" ry="4.016"/>
            <ellipse cx="174.136" cy="370.975" stroke-linecap="round" stroke-linejoin="round" stroke-width="2.35" rx="2.881" ry="2.869"/>
            <path stroke-linecap="round" stroke-linejoin="round" stroke-width="2.35" d="M158.578 306.143h11.524l-1.178 11.475h-9.168z"/>
            <ellipse cx="256.554" cy="137.419" fill="#707070" stroke-width="1.175" rx="1.767" ry="1.759"/>
            <path stroke-linecap="round" stroke-linejoin="round" stroke-width="2.35" d="M274.51 137.865l-18.414 10.652 17.77 10.28a20.322 20.322 0 0 1-2.69 3.305c-7.931 7.898-20.792 7.898-28.724 0-7.932-7.898-7.932-20.702 0-28.6s20.793-7.898 28.725 0a20.251 20.251 0 0 1 3.334 4.363z"/>
            <ellipse cx="255.499" cy="63.921" stroke-linecap="round" stroke-linejoin="round" stroke-width="2.35" rx="2.945" ry="2.932"/>
            <ellipse cx="268.446" cy="63.921" stroke-linecap="round" stroke-linejoin="round" stroke-width="2.35" rx="2.945" ry="2.932"/>
            <path stroke-linecap="round" stroke-linejoin="round" stroke-width="2.35" d="M261.972 44.57c11.06 0 20.027 8.967 20.027 20.027v24.546c-2.945-4.301-6.086-6.452-9.424-6.452-5.007 0-5.596 6.452-10.603 6.452s-5.596-6.452-10.602-6.452c-3.338 0-6.48 2.15-9.425 6.452V64.597c0-11.06 8.967-20.027 20.027-20.027zM97.78 399.98c11.06 0 20.026 8.967 20.026 20.027v24.546c-2.945-4.301-6.086-6.452-9.424-6.452-5.007 0-5.596 6.452-10.603 6.452-5.006 0-5.595-6.452-10.602-6.452-3.338 0-6.48 2.15-9.425 6.452v-24.546c0-11.06 8.967-20.027 20.027-20.027zM291.975 270.037c-7.413-3.15-12.237-9.074-12.237-18.87 0-16.196 13.186-29.324 29.451-29.324 16.266 0 29.452 13.128 29.452 29.324 0 9.061-4.128 14.809-10.614 18.114.028-.271.042-.545.042-.82 0-6.645-8.115-12.031-18.124-12.031-10.01 0-18.125 5.386-18.125 12.03 0 .535.053 1.061.155 1.577z"/>
            <path stroke-linecap="round" stroke-linejoin="round" stroke-width="2.35" d="M279.77 250.411a29.095 29.095 0 0 1 5.434-16.237 8.996 8.996 0 0 1 3.619 7.215c0 4.98-4.052 9.017-9.053 9.022zM333.174 234.174a29.095 29.095 0 0 1 5.434 16.237c-5-.005-9.052-4.042-9.052-9.022a8.996 8.996 0 0 1 3.618-7.215z"/>
            <ellipse cx="309.944" cy="268.481" stroke-linecap="round" stroke-linejoin="round" stroke-width="2.35" rx="18.124" ry="12.03"/>
            <ellipse cx="309.944" cy="238.377" stroke-linecap="round" stroke-linejoin="round" stroke-width="2.35" rx="10.572" ry="10.527"/>
            <path stroke-linecap="round" stroke-linejoin="round" stroke-width="2.35" d="M305.417 264.72v4.512M314.47 264.72v4.512M300.486 387.078l60.426-35.283v70.565z"/>
            <path stroke-linecap="round" stroke-linejoin="round" stroke-width="2.35" d="M355.89 387.317l-23.02-13.44v26.881zM73.662 65.281L65.686 78.92l-.048-.015a8.694 8.694 0 0 1-7.468 4.225c-4.8 0-8.691-3.874-8.691-8.653 0-.233.009-.464.027-.693l-.027-.009 4.229-27.922-.001-.142c0-6.459 5.235-11.694 11.693-11.694h44.731c6.458 0 11.694 5.235 11.694 11.694l-.001.142 4.229 27.922-.028.009c.019.229.028.46.028.693 0 4.779-3.891 8.653-8.691 8.653a8.694 8.694 0 0 1-7.468-4.225l-.049.015-8.116-13.878a5.863 5.863 0 0 1-3.628 1.25 5.874 5.874 0 0 1-5.48-3.743H82.44a5.874 5.874 0 0 1-5.48 3.742 5.863 5.863 0 0 1-3.3-1.009z"/>
            <ellipse cx="106.909" cy="47.994" stroke-linecap="round" stroke-linejoin="round" stroke-width="2.35" rx="6.381" ry="6.354"/>
            <ellipse cx="67.542" cy="48.259" stroke-linecap="round" stroke-linejoin="round" stroke-width="2.35" rx="6.381" ry="6.354"/>
            <path stroke-linecap="round" stroke-linejoin="round" stroke-width="2.35" d="M81.385 45.452h12.762v6.354H81.385zM102.007 260.56c4.373.629 8.86.943 13.46.943 5.853 0 12.027-.508 18.525-1.525a4.39 4.39 0 0 1 5.068 4.337 4.64 4.64 0 0 1-5.125 4.613c-6.328-.666-12.484-.999-18.467-.999-4.671 0-9.145.203-13.42.61-1.728 14.637-13.253 26.258-27.806 28.062a4.005 4.005 0 0 1-3.96 3.457 4.005 4.005 0 0 1-3.96-3.457c-15.8-1.959-28.03-15.487-28.03-31.885 0-16.397 12.23-29.926 28.03-31.885a4.005 4.005 0 0 1 3.96-3.457c2.02 0 3.69 1.504 3.96 3.457 14.442 1.79 25.903 13.25 27.765 27.73z"/>
            <ellipse cx="71.142" cy="264.983" stroke-linecap="round" stroke-linejoin="round" stroke-width="2.35" rx="19.405" ry="19.387" transform="rotate(-90 71.142 264.983)"/>
            <path stroke-linecap="round" stroke-linejoin="round" stroke-width="2.35" d="M399.852 119.784v-37.42h7.477V74.88h7.476v-7.484h7.477v-7.484h22.431v7.484H429.76v7.484h14.954v7.484h-7.477v37.42h7.477v7.485H429.76v7.484h14.954v7.484h-22.43v-7.484h-7.478v-7.484h-7.476v-7.485zM444.744 112.29v-7.497h7.464v14.994h-7.464v-7.497z"/>
            <path stroke-linecap="round" stroke-linejoin="round" stroke-width="2.35" d="M414.802 119.77v-7.484h7.477v7.485zM392.35 127.248v-7.484h7.477v7.484zM452.208 89.859v-7.497h-7.464v14.993h7.464V89.86zM422.279 89.862v-7.484h-7.477v7.484zM399.827 82.385V74.9h-7.477v7.484zM0 83.28h7.068M3.534 79.761V86.8M203.805 85.626h7.068M207.34 82.107v7.038M21.205 256.879h7.069M24.74 253.36v7.038M222.654 288.549h7.069M226.188 285.03v7.038M336.926 338.986h7.069M340.46 335.467v7.038M471.226 260.398h7.068M474.76 256.879v7.038M574.895 350.442h7.069M578.43 346.923v7.038M226.331 178.141l4.998 4.99M231.323 178.148l-4.985 4.976M266.81 306.853l4.998 4.99M271.801 306.86l-4.984 4.976M424.31 309.848l4.998 4.99M429.301 309.855l-4.984 4.976M109.703 295.722l4.998 4.99M114.694 295.729l-4.985 4.976M79.073 379.003l4.998 4.99M84.065 379.01l-4.985 4.976M553.833 102.183l4.998 4.99M558.825 102.19l-4.985 4.976M525.56 374.31l4.998 4.99M530.551 374.317l-4.985 4.977M466.656 66.995l4.998 4.99M471.648 67.001l-4.985 4.977M974.528 173.598h-9.765v5.094h-5.58v-5.094h-9.766v5.094h-5.115v9.723h5.115v5.093h5.115v5.093h5.116v5.093h4.65v-5.093h5.115v-5.093h5.115v-5.093h5.116v-9.723h-5.116zM684.869 127.69l-3.173 1.66a1.175 1.175 0 0 1-1.704-1.24l.604-3.504a1.175 1.175 0 0 0-.34-1.042l-2.552-2.478a1.175 1.175 0 0 1 .65-2.006l3.537-.512c.382-.055.713-.295.884-.64l1.586-3.2a1.175 1.175 0 0 1 2.105 0l1.586 3.2c.171.345.502.585.884.64l3.537.512a1.175 1.175 0 0 1 .65 2.006l-2.552 2.478c-.279.27-.406.66-.34 1.042l.604 3.504a1.175 1.175 0 0 1-1.704 1.24l-3.173-1.66a1.175 1.175 0 0 0-1.09 0zM617.433 18.604l-3.173 1.661a1.175 1.175 0 0 1-1.703-1.24l.603-3.504a1.175 1.175 0 0 0-.34-1.043l-2.552-2.477a1.175 1.175 0 0 1 .65-2.007l3.537-.511c.382-.056.713-.295.885-.641l1.585-3.199a1.175 1.175 0 0 1 2.106 0l1.585 3.199c.172.346.503.585.885.64l3.537.512a1.175 1.175 0 0 1 .65 2.007l-2.553 2.477c-.278.27-.405.66-.34 1.043l.604 3.503a1.175 1.175 0 0 1-1.703 1.241l-3.173-1.66a1.175 1.175 0 0 0-1.09 0zM1041.572 276.156l-3.173 1.66a1.175 1.175 0 0 1-1.703-1.24l.603-3.504a1.175 1.175 0 0 0-.34-1.042l-2.552-2.478a1.175 1.175 0 0 1 .65-2.006l3.537-.512c.382-.055.713-.295.884-.64l1.586-3.2a1.175 1.175 0 0 1 2.105 0l1.586 3.2c.171.345.502.585.885.64l3.536.512a1.175 1.175 0 0 1 .65 2.006l-2.552 2.478c-.279.27-.406.66-.34 1.042l.604 3.504a1.175 1.175 0 0 1-1.703 1.24l-3.173-1.66a1.175 1.175 0 0 0-1.09 0zM1040.358 376.358l-3.173 1.66a1.175 1.175 0 0 1-1.703-1.24l.604-3.504a1.175 1.175 0 0 0-.34-1.042l-2.553-2.478a1.175 1.175 0 0 1 .65-2.006l3.537-.512c.382-.055.713-.295.885-.64l1.585-3.2a1.175 1.175 0 0 1 2.106 0l1.585 3.2c.172.345.503.585.885.64l3.537.512a1.175 1.175 0 0 1 .65 2.006l-2.553 2.478c-.278.27-.405.66-.34 1.042l.604 3.504a1.175 1.175 0 0 1-1.703 1.24l-3.173-1.66a1.175 1.175 0 0 0-1.09 0zM1177.013 411.546l-3.172 1.661a1.175 1.175 0 0 1-1.704-1.24l.604-3.504a1.175 1.175 0 0 0-.34-1.042l-2.552-2.478a1.175 1.175 0 0 1 .65-2.006l3.537-.512c.382-.055.713-.295.884-.641l1.586-3.199a1.175 1.175 0 0 1 2.105 0l1.586 3.199c.171.346.502.586.884.641l3.537.512a1.175 1.175 0 0 1 .65 2.006l-2.552 2.478c-.279.27-.406.66-.34 1.042l.603 3.504a1.175 1.175 0 0 1-1.703 1.24l-3.173-1.66a1.175 1.175 0 0 0-1.09 0zM758.8 71.387l-3.172 1.661a1.175 1.175 0 0 1-1.703-1.24l.603-3.504a1.175 1.175 0 0 0-.34-1.043l-2.552-2.477a1.175 1.175 0 0 1 .65-2.006l3.537-.512c.382-.055.713-.295.884-.641l1.586-3.199a1.175 1.175 0 0 1 2.106 0l1.585 3.199c.172.346.502.586.885.641l3.536.512a1.175 1.175 0 0 1 .65 2.006l-2.552 2.477c-.279.27-.406.66-.34 1.043l.604 3.504a1.175 1.175 0 0 1-1.703 1.24l-3.173-1.66a1.175 1.175 0 0 0-1.09 0zM908.415 152.322l-3.173 1.66a1.175 1.175 0 0 1-1.703-1.24l.603-3.503a1.175 1.175 0 0 0-.34-1.043l-2.552-2.478a1.175 1.175 0 0 1 .65-2.006l3.537-.512c.382-.055.713-.295.885-.64l1.585-3.2a1.175 1.175 0 0 1 2.106 0l1.585 3.2c.172.345.502.585.885.64l3.537.512a1.175 1.175 0 0 1 .65 2.006l-2.553 2.478c-.278.27-.406.66-.34 1.043l.604 3.503a1.175 1.175 0 0 1-1.703 1.24l-3.173-1.66a1.175 1.175 0 0 0-1.09 0zM1068.632 172.262l-3.173 1.661a1.175 1.175 0 0 1-1.703-1.24l.603-3.504a1.175 1.175 0 0 0-.34-1.043l-2.552-2.477a1.175 1.175 0 0 1 .65-2.007l3.537-.511c.382-.056.713-.295.884-.641l1.586-3.199a1.175 1.175 0 0 1 2.105 0l1.586 3.199c.171.346.502.585.884.64l3.537.512a1.175 1.175 0 0 1 .65 2.007l-2.552 2.477c-.279.27-.406.66-.34 1.043l.604 3.503a1.175 1.175 0 0 1-1.703 1.241l-3.173-1.66a1.175 1.175 0 0 0-1.09 0zM890.744 26.815l-3.173 1.66a1.175 1.175 0 0 1-1.703-1.24l.603-3.503a1.175 1.175 0 0 0-.34-1.043l-2.552-2.478a1.175 1.175 0 0 1 .65-2.006l3.537-.512c.382-.055.713-.295.885-.64l1.585-3.2a1.175 1.175 0 0 1 2.106 0l1.585 3.2c.172.345.502.585.885.64l3.537.512a1.175 1.175 0 0 1 .65 2.006l-2.553 2.478c-.278.27-.405.66-.34 1.043l.604 3.503a1.175 1.175 0 0 1-1.703 1.24l-3.173-1.66a1.175 1.175 0 0 0-1.09 0zM1165.233 49.101l-3.173 1.661a1.175 1.175 0 0 1-1.703-1.24l.603-3.504a1.175 1.175 0 0 0-.34-1.043l-2.552-2.477a1.175 1.175 0 0 1 .65-2.007l3.537-.511c.382-.056.713-.295.884-.641l1.586-3.199a1.175 1.175 0 0 1 2.106 0l1.585 3.199c.172.346.502.585.885.64l3.537.512a1.175 1.175 0 0 1 .65 2.007l-2.553 2.477c-.278.27-.406.66-.34 1.043l.604 3.503a1.175 1.175 0 0 1-1.703 1.241l-3.173-1.66a1.175 1.175 0 0 0-1.09 0zM824.772 363.455l-3.173 1.66a1.175 1.175 0 0 1-1.703-1.24l.604-3.503a1.175 1.175 0 0 0-.34-1.043l-2.553-2.477a1.175 1.175 0 0 1 .65-2.007l3.537-.511c.383-.056.713-.295.885-.642l1.585-3.198a1.175 1.175 0 0 1 2.106 0l1.586 3.198c.171.347.502.586.884.642l3.537.511a1.175 1.175 0 0 1 .65 2.007l-2.553 2.477c-.278.27-.405.66-.34 1.043l.604 3.503a1.175 1.175 0 0 1-1.703 1.24l-3.173-1.66a1.175 1.175 0 0 0-1.09 0zM685.93 311.964l-1.716.899a1.175 1.175 0 0 1-1.703-1.24l.325-1.89a1.175 1.175 0 0 0-.34-1.042l-1.374-1.335a1.175 1.175 0 0 1 .65-2.006l1.908-.276c.383-.055.714-.295.885-.641l.857-1.73a1.175 1.175 0 0 1 2.106 0l.858 1.73c.171.346.502.586.884.641l1.909.276a1.175 1.175 0 0 1 .65 2.006l-1.375 1.335c-.278.27-.405.66-.34 1.042l.326 1.89a1.175 1.175 0 0 1-1.703 1.24l-1.717-.899a1.175 1.175 0 0 0-1.09 0zM834.43 323.944l-1.716.899a1.175 1.175 0 0 1-1.703-1.241l.325-1.889a1.175 1.175 0 0 0-.34-1.043l-1.374-1.334a1.175 1.175 0 0 1 .65-2.006l1.908-.276c.383-.056.714-.295.885-.641l.857-1.73a1.175 1.175 0 0 1 2.106 0l.858 1.73c.171.346.502.585.884.64l1.909.277a1.175 1.175 0 0 1 .65 2.006l-1.375 1.334c-.278.27-.405.66-.34 1.043l.326 1.889a1.175 1.175 0 0 1-1.703 1.24l-1.717-.898a1.175 1.175 0 0 0-1.09 0zM1071.54 10.529l24.933 10.584h-16.976v10.585l-24.402-10.585h16.445zM1043.508 222.89l-24.933-10.584h16.975v-10.584l24.403 10.584h-16.445zM834.742 240.716l10.602-24.891v16.947h10.603l-10.603 24.362v-16.418zM848.886 387.05l24.933 10.584h-16.976v10.585l-24.403-10.585h16.446z"/>
            <ellipse cx="1132.792" cy="184.155" stroke-linecap="round" stroke-linejoin="round" stroke-width="2.35" rx="6.426" ry="6.398"/>
            <path stroke-linecap="round" stroke-linejoin="round" stroke-width="2.35" d="M1134.839 152.588l6.937 18.25a3.615 3.615 0 0 1-.642 3.645 73.015 73.015 0 0 0-3.538 4.41c-3.303-1.604-6.606-1.604-9.496 0a720.954 720.954 0 0 0-2.984-3.36 5.876 5.876 0 0 1-1.111-6.003l6.44-16.942a2.35 2.35 0 0 1 4.394 0zM1160.264 202.146l-20.092-3.297a3.769 3.769 0 0 1-2.943-2.463 75.298 75.298 0 0 0-2.134-5.415c3.136-2.105 4.833-5.04 4.879-8.437 1.496-.295 3.059-.61 4.688-.943a5.876 5.876 0 0 1 5.718 2.029l12.08 14.716a2.35 2.35 0 0 1-2.196 3.81zM1105.284 201.932l20.091-3.297a3.769 3.769 0 0 0 2.943-2.463 75.298 75.298 0 0 1 2.135-5.415c-3.136-2.105-4.834-5.04-4.88-8.437-1.496-.295-3.058-.61-4.688-.943a5.876 5.876 0 0 0-5.718 2.029l-12.08 14.716a2.35 2.35 0 0 0 2.197 3.81zM969.334 284.977c0 12.092 9.572 21.895 21.38 21.895 11.807 0 21.379-9.803 21.379-21.895 0-8.11-4.307-15.191-10.706-18.975V257H980.04v9.003c-6.4 3.784-10.706 10.864-10.706 18.975zM976.664 250.917h26.877V257h-26.877zM975.792 253.961c-6.415 0-15.28 6.342-18.937 19.366"/>
            <path stroke-linecap="round" stroke-linejoin="round" stroke-width="2.35" d="M1004.427 255.28c.871.298 1.806.46 2.78.46 4.722 0 8.551-3.813 8.551-8.515 0-4.703-3.829-8.515-8.552-8.515-4.723 0-8.552 3.812-8.552 8.515 0 1.004.175 1.969.496 2.864M1112.75 69.189v15.68H1101V69.19c0-5.489 4.308-9.409 5.875-9.409 1.566 0 5.874 4.704 5.874 9.409z"/>
            <path stroke-linecap="round" stroke-linejoin="round" stroke-width="2.35" d="M1112.75 84.462v9.409H1101v-9.409zM1112.754 74.675h-2.35M764.058 120.815H748.35v-11.73h15.708c5.498 0 9.424 4.301 9.424 5.865s-4.712 5.865-9.424 5.865z"/>
            <path stroke-linecap="round" stroke-linejoin="round" stroke-width="2.35" d="M748.743 120.816h-9.425v-11.73h9.425zM754.339 120.815v-5.474M758.56 120.815v-2.346M638.61 390.026v-15.681h11.75v15.681c0 5.488-4.309 9.409-5.876 9.409-1.566 0-5.874-4.705-5.874-9.409z"/>
            <path stroke-linecap="round" stroke-linejoin="round" stroke-width="2.35" d="M638.61 374.753v-9.409h11.75v9.409zM638.605 384.54h2.35M1163.422 249.841h-15.708v-11.73h15.708c5.497 0 9.424 4.301 9.424 5.865s-4.712 5.865-9.424 5.865z"/>
            <path stroke-linecap="round" stroke-linejoin="round" stroke-width="2.35" d="M1148.107 249.841h-9.425v-11.73h9.425zM1153.703 249.841v-5.474M1157.924 249.841v-2.346M933.347 72.724h15.707v-11.73h-15.707c-5.498 0-9.425 4.3-9.425 5.865 0 1.564 4.712 5.865 9.425 5.865z"/>
            <path stroke-linecap="round" stroke-linejoin="round" stroke-width="2.35" d="M948.661 72.724h9.425v-11.73h-9.425zM943.066 72.724V67.25M938.844 72.724v-2.346M678.075 194.728v-15.681h11.75v15.68c0 5.49-4.309 9.41-5.875 9.41-1.567 0-5.875-4.705-5.875-9.41z"/>
            <path stroke-linecap="round" stroke-linejoin="round" stroke-width="2.35" d="M678.075 179.454v-9.408h11.75v9.408zM678.07 189.242h2.35M862.438 335.862h2.35"/>
            <ellipse cx="645.073" cy="338.986" stroke-linecap="round" stroke-linejoin="round" stroke-width="2.35" rx="3.534" ry="3.519"/>
            <ellipse cx="999.671" cy="11.73" stroke-linecap="round" stroke-linejoin="round" stroke-width="2.35" rx="3.534" ry="3.519"/>
            <ellipse cx="734.606" cy="213.479" stroke-linecap="round" stroke-linejoin="round" stroke-width="2.35" rx="3.534" ry="3.519"/>
            <ellipse cx="908.111" cy="204.095" stroke-linecap="round" stroke-linejoin="round" stroke-width="2.35" rx="2.356" ry="2.346"/>
            <ellipse cx="659.21" cy="104.394" stroke-linecap="round" stroke-linejoin="round" stroke-width="2.35" rx="2.356" ry="2.346"/>
            <ellipse cx="919.562" cy="114.95" stroke-linecap="round" stroke-linejoin="round" stroke-width="2.35" rx="2.356" ry="2.346"/>
            <ellipse cx="865.371" cy="11.73" stroke-linecap="round" stroke-linejoin="round" stroke-width="2.35" rx="2.356" ry="2.346"/>
            <ellipse cx="888.933" cy="174.771" stroke-linecap="round" stroke-linejoin="round" stroke-width="2.35" rx="2.356" ry="2.346"/>
            <ellipse cx="658.032" cy="193.539" stroke-linecap="round" stroke-linejoin="round" stroke-width="2.35" rx="2.356" ry="2.346"/>
            <ellipse cx="782.907" cy="24.632" stroke-linecap="round" stroke-linejoin="round" stroke-width="2.35" rx="3.534" ry="3.519"/>
            <ellipse cx="960.795" cy="97.356" stroke-linecap="round" stroke-linejoin="round" stroke-width="2.35" rx="3.534" ry="3.519"/>
            <ellipse cx="1158.709" cy="154.831" stroke-linecap="round" stroke-linejoin="round" stroke-width="2.35" rx="3.534" ry="3.519"/>
            <ellipse cx="1168.134" cy="361.272" stroke-linecap="round" stroke-linejoin="round" stroke-width="2.35" rx="3.534" ry="3.519"/>
            <ellipse cx="1026.766" cy="342.505" stroke-linecap="round" stroke-linejoin="round" stroke-width="2.35" rx="3.534" ry="3.519"/>
            <ellipse cx="1007.917" cy="50.437" stroke-linecap="round" stroke-linejoin="round" stroke-width="2.35" rx="3.534" ry="3.519"/>
            <ellipse cx="1007.917" cy="163.042" stroke-linecap="round" stroke-linejoin="round" stroke-width="2.35" rx="3.534" ry="3.519"/>
            <ellipse cx="931.431" cy="251.288" stroke-linecap="round" stroke-linejoin="round" stroke-width="2.35" rx="3.534" ry="3.519"/>
            <ellipse cx="908.96" cy="51.61" stroke-linecap="round" stroke-linejoin="round" stroke-width="2.35" rx="3.534" ry="3.519"/>
            <ellipse cx="635.649" cy="73.897" stroke-linecap="round" stroke-linejoin="round" stroke-width="2.35" rx="2.356" ry="2.346"/>
            <ellipse cx="725.182" cy="9.384" stroke-linecap="round" stroke-linejoin="round" stroke-width="2.35" rx="2.356" ry="2.346"/>
            <ellipse cx="798.222" cy="121.988" stroke-linecap="round" stroke-linejoin="round" stroke-width="2.35" rx="3.534" ry="3.519"/>
            <ellipse cx="1108.053" cy="2.346" stroke-linecap="round" stroke-linejoin="round" stroke-width="2.35" rx="2.356" ry="2.346"/>
            <ellipse cx="1194.051" cy="96.183" stroke-linecap="round" stroke-linejoin="round" stroke-width="2.35" rx="2.356" ry="2.346"/>
            <ellipse cx="1189.339" cy="238.111" stroke-linecap="round" stroke-linejoin="round" stroke-width="2.35" rx="2.356" ry="2.346"/>
            <ellipse cx="1105.697" cy="140.755" stroke-linecap="round" stroke-linejoin="round" stroke-width="2.35" rx="2.356" ry="2.346"/>
            <ellipse cx="1143.395" cy="46.918" stroke-linecap="round" stroke-linejoin="round" stroke-width="2.35" rx="2.356" ry="2.346"/>
            <ellipse cx="1062.635" cy="299.778" stroke-linecap="round" stroke-linejoin="round" stroke-width="2.35" rx="2.356" ry="2.346"/>
            <ellipse cx="997.315" cy="380.04" stroke-linecap="round" stroke-linejoin="round" stroke-width="2.35" rx="3.534" ry="3.519"/>
            <ellipse cx="920.528" cy="290.269" stroke-linecap="round" stroke-linejoin="round" stroke-width="2.35" rx="3.534" ry="3.519"/>
            <ellipse cx="1148.107" cy="272.127" stroke-linecap="round" stroke-linejoin="round" stroke-width="2.35" rx="2.356" ry="2.346"/>
            <ellipse cx="738.73" cy="4.105" fill="#707070" stroke-width="1.175" rx="1.767" ry="1.759"/>
            <ellipse cx="916.617" cy="7.624" fill="#707070" stroke-width="1.175" rx="1.767" ry="1.759"/>
            <ellipse cx="836.509" cy="1.759" fill="#707070" stroke-width="1.175" rx="1.767" ry="1.759"/>
            <ellipse cx="828.262" cy="52.197" fill="#707070" stroke-width="1.175" rx="1.767" ry="1.759"/>
            <ellipse cx="784.674" cy="61.581" fill="#707070" stroke-width="1.175" rx="1.767" ry="1.759"/>
            <ellipse cx="941.357" cy="4.105" fill="#707070" stroke-width="1.175" rx="1.767" ry="1.759"/>
            <ellipse cx="1175.791" cy="74.483" fill="#707070" stroke-width="1.175" rx="1.767" ry="1.759"/>
            <ellipse cx="909.549" cy="31.083" fill="#707070" stroke-width="1.175" rx="1.767" ry="1.759"/>
            <ellipse cx="1194.64" cy="158.936" fill="#707070" stroke-width="1.175" rx="1.767" ry="1.759"/>
            <ellipse cx="973.164" cy="53.37" fill="#707070" stroke-width="1.175" rx="1.767" ry="1.759"/>
            <ellipse cx="1029.711" cy="6.451" fill="#707070" stroke-width="1.175" rx="1.767" ry="1.759"/>
            <ellipse cx="1022.643" cy="42.813" fill="#707070" stroke-width="1.175" rx="1.767" ry="1.759"/>
            <ellipse cx="1061.519" cy="52.197" fill="#707070" stroke-width="1.175" rx="1.767" ry="1.759"/>
            <ellipse cx="1100.395" cy="33.429" fill="#707070" stroke-width="1.175" rx="1.767" ry="1.759"/>
            <ellipse cx="1185.216" cy="34.602" fill="#707070" stroke-width="1.175" rx="1.767" ry="1.759"/>
            <ellipse cx="1194.64" cy="6.451" fill="#707070" stroke-width="1.175" rx="1.767" ry="1.759"/>
            <ellipse cx="1175.791" cy="15.835" fill="#707070" stroke-width="1.175" rx="1.767" ry="1.759"/>
            <ellipse cx="1179.326" cy="126.093" fill="#707070" stroke-width="1.175" rx="1.767" ry="1.759"/>
            <ellipse cx="1128.669" cy="73.31" fill="#707070" stroke-width="1.175" rx="1.767" ry="1.759"/>
            <ellipse cx="1132.203" cy="109.672" fill="#707070" stroke-width="1.175" rx="1.767" ry="1.759"/>
            <ellipse cx="909.549" cy="81.521" fill="#707070" stroke-width="1.175" rx="1.767" ry="1.759"/>
            <ellipse cx="927.22" cy="180.05" fill="#707070" stroke-width="1.175" rx="1.767" ry="1.759"/>
            <ellipse cx="933.11" cy="146.034" fill="#707070" stroke-width="1.175" rx="1.767" ry="1.759"/>
            <ellipse cx="810.591" cy="202.336" fill="#707070" stroke-width="1.175" rx="1.767" ry="1.759"/>
            <ellipse cx="880.097" cy="95.596" fill="#707070" stroke-width="1.175" rx="1.767" ry="1.759"/>
            <ellipse cx="616.211" cy="101.461" fill="#707070" stroke-width="1.175" rx="1.767" ry="1.759"/>
            <ellipse cx="692.785" cy="18.181" fill="#707070" stroke-width="1.175" rx="1.767" ry="1.759"/>
            <ellipse cx="657.443" cy="8.797" fill="#707070" stroke-width="1.175" rx="1.767" ry="1.759"/>
            <ellipse cx="624.457" cy="38.121" fill="#707070" stroke-width="1.175" rx="1.767" ry="1.759"/>
            <ellipse cx="748.154" cy="90.905" fill="#707070" stroke-width="1.175" rx="1.767" ry="1.759"/>
            <ellipse cx="697.497" cy="81.521" fill="#707070" stroke-width="1.175" rx="1.767" ry="1.759"/>
            <ellipse cx="725.771" cy="137.823" fill="#707070" stroke-width="1.175" rx="1.767" ry="1.759"/>
            <ellipse cx="377.413" cy="316.739" fill="#707070" stroke-width="1.175" rx="1.767" ry="1.759"/>
            <ellipse cx="970.808" cy="154.245" fill="#707070" stroke-width="1.175" rx="1.767" ry="1.759"/>
            <ellipse cx="402.677" cy="297.346" fill="#707070" stroke-width="1.175" rx="1.767" ry="1.759"/>
            <ellipse cx="746.976" cy="320.805" fill="#707070" stroke-width="1.175" rx="1.767" ry="1.759"/>
            <ellipse cx="803.523" cy="386.491" fill="#707070" stroke-width="1.175" rx="1.767" ry="1.759"/>
            <ellipse cx="664.512" cy="351.302" fill="#707070" stroke-width="1.175" rx="1.767" ry="1.759"/>
            <ellipse cx="606.786" cy="230.487" fill="#707070" stroke-width="1.175" rx="1.767" ry="1.759"/>
            <ellipse cx="995.636" cy="238.448" fill="#707070" stroke-width="1.175" rx="1.767" ry="1.759"/>
            <ellipse cx="862.426" cy="197.644" fill="#707070" stroke-width="1.175" rx="1.767" ry="1.759"/>
            <ellipse cx="868.317" cy="243.39" fill="#707070" stroke-width="1.175" rx="1.767" ry="1.759"/>
            <ellipse cx="810.002" cy="243.976" fill="#707070" stroke-width="1.175" rx="2.356" ry="2.346"/>
            <ellipse cx="706.333" cy="209.96" fill="#707070" stroke-width="1.175" rx="2.356" ry="2.346"/>
            <ellipse cx="762.88" cy="249.841" fill="#707070" stroke-width="1.175" rx="2.356" ry="2.346"/>
            <ellipse cx="633.455" cy="305.994" fill="#707070" stroke-width="1.175" rx="2.356" ry="2.346"/>
            <ellipse cx="959.028" cy="224.622" fill="#707070" stroke-width="1.175" rx="1.767" ry="1.759"/>
            <ellipse cx="836.509" cy="115.537" fill="#707070" stroke-width="1.175" rx="1.767" ry="1.759"/>
            <ellipse cx="995.548" cy="215.239" fill="#707070" stroke-width="1.175" rx="1.767" ry="1.759"/>
            <ellipse cx="1027.663" cy="314.342" fill="#707070" stroke-width="1.175" rx="1.767" ry="1.759"/>
            <ellipse cx="1061.204" cy="236.352" fill="#707070" stroke-width="1.175" rx="1.767" ry="1.759"/>
            <ellipse cx="1074.478" cy="198.817" fill="#707070" stroke-width="1.175" rx="1.767" ry="1.759"/>
            <ellipse cx="1043.848" cy="184.742" fill="#707070" stroke-width="1.175" rx="1.767" ry="1.759"/>
            <ellipse cx="1122.778" cy="265.676" fill="#707070" stroke-width="1.175" rx="1.767" ry="1.759"/>
            <ellipse cx="1108.642" cy="223.449" fill="#707070" stroke-width="1.175" rx="1.767" ry="1.759"/>
            <ellipse cx="1178.147" cy="197.644" fill="#707070" stroke-width="1.175" rx="1.767" ry="1.759"/>
            <ellipse cx="1195.818" cy="317.286" fill="#707070" stroke-width="1.175" rx="1.767" ry="1.759"/>
            <ellipse cx="1181.682" cy="300.865" fill="#707070" stroke-width="1.175" rx="1.767" ry="1.759"/>
            <ellipse cx="981.411" cy="347.783" fill="#707070" stroke-width="1.175" rx="1.767" ry="1.759"/>
            <ellipse cx="924.864" cy="357.167" fill="#707070" stroke-width="1.175" rx="1.767" ry="1.759"/>
            <ellipse cx="887.166" cy="366.551" fill="#707070" stroke-width="1.175" rx="1.767" ry="1.759"/>
            <ellipse cx="955.493" cy="116.71" fill="#707070" stroke-width="1.175" rx="1.767" ry="1.759"/>
            <ellipse cx="1083.902" cy="130.785" fill="#707070" stroke-width="1.175" rx="1.767" ry="1.759"/>
            <ellipse cx="1099.217" cy="399.394" fill="#707070" stroke-width="1.175" rx="1.767" ry="1.759"/>
            <ellipse cx="615.033" cy="181.223" fill="#707070" stroke-width="1.175" rx="1.767" ry="1.759"/>
            <ellipse cx="643.306" cy="204.682" fill="#707070" stroke-width="1.175" rx="1.767" ry="1.759"/>
            <ellipse cx="615.622" cy="357.753" stroke-linecap="round" stroke-linejoin="round" stroke-width="2.35" rx="2.356" ry="2.346"/>
            <ellipse cx="1138.093" cy="9.97" fill="#707070" stroke-width="1.175" rx="1.767" ry="1.759"/>
            <path stroke-linecap="round" stroke-linejoin="round" stroke-width="2.35" d="M741.675 361.795c7.683-6.885 16.518-8.415 26.506-4.59 9.988 3.825 17.287.574 21.897-9.753"/>
            <ellipse cx="757.233" cy="367.532" stroke-linecap="round" stroke-linejoin="round" stroke-width="2.35" rx="4.034" ry="4.016"/>
            <ellipse cx="777.977" cy="370.975" stroke-linecap="round" stroke-linejoin="round" stroke-width="2.35" rx="2.881" ry="2.869"/>
            <ellipse cx="860.395" cy="137.419" fill="#707070" stroke-width="1.175" rx="1.767" ry="1.759"/>
            <ellipse cx="859.34" cy="63.921" stroke-linecap="round" stroke-linejoin="round" stroke-width="2.35" rx="2.945" ry="2.932"/>
            <ellipse cx="872.287" cy="63.921" stroke-linecap="round" stroke-linejoin="round" stroke-width="2.35" rx="2.945" ry="2.932"/>
            <path stroke-linecap="round" stroke-linejoin="round" stroke-width="2.35" d="M865.813 44.57c11.061 0 20.027 8.967 20.027 20.027v24.546c-2.945-4.301-6.086-6.452-9.424-6.452-5.007 0-5.596 6.452-10.603 6.452-5.006 0-5.595-6.452-10.602-6.452-3.338 0-6.48 2.15-9.425 6.452V64.597c0-11.06 8.967-20.027 20.027-20.027zM701.62 399.98c11.061 0 20.028 8.967 20.028 20.027v24.546c-2.946-4.301-6.087-6.452-9.425-6.452-5.007 0-5.596 6.452-10.602 6.452-5.007 0-5.596-6.452-10.603-6.452-3.338 0-6.48 2.15-9.425 6.452v-24.546c0-11.06 8.967-20.027 20.028-20.027zM904.328 387.078l60.426-35.283v70.565z"/>
            <path stroke-linecap="round" stroke-linejoin="round" stroke-width="2.35" d="M959.73 387.317l-23.019-13.44v26.881zM677.503 71.271l-7.976 13.638-.048-.015a8.694 8.694 0 0 1-7.468 4.225c-4.8 0-8.691-3.874-8.691-8.653 0-.233.01-.465.027-.693l-.027-.009 4.229-27.922-.001-.143c0-6.458 5.235-11.693 11.694-11.693h44.73c6.459 0 11.694 5.235 11.694 11.693v.143l4.228 27.922-.027.009c.018.228.027.46.027.693 0 4.779-3.891 8.653-8.69 8.653a8.694 8.694 0 0 1-7.47-4.225l-.047.015-8.117-13.878a5.863 5.863 0 0 1-3.628 1.25 5.874 5.874 0 0 1-5.48-3.743h-10.18a5.874 5.874 0 0 1-5.48 3.742 5.863 5.863 0 0 1-3.299-1.009z"/>
            <ellipse cx="710.751" cy="53.984" stroke-linecap="round" stroke-linejoin="round" stroke-width="2.35" rx="6.381" ry="6.354"/>
            <ellipse cx="671.383" cy="54.249" stroke-linecap="round" stroke-linejoin="round" stroke-width="2.35" rx="6.381" ry="6.354"/>
            <path stroke-linecap="round" stroke-linejoin="round" stroke-width="2.35" d="M685.226 51.442h12.762v6.354h-12.762zM1007.354 83.21h37.484v7.465h7.496v7.464h7.497v7.464h7.497v22.393h-7.497v-14.928h-7.497v14.928h-7.496v-7.464h-37.484v7.464h-7.497v-14.928h-7.497v14.928h-7.497v-22.393h7.497V98.14h7.497v-7.464h7.497zM1014.861 128.02h7.497v7.465h-14.994v-7.464h7.497z"/>
            <path stroke-linecap="round" stroke-linejoin="round" stroke-width="2.35" d="M1007.368 98.136h7.497v7.464h-7.497zM999.878 75.722h7.497v7.464h-7.497zM1037.33 128.02h-7.496v7.465h14.993v-7.464h-7.497zM1044.824 98.136h-7.497v7.464h7.497zM1052.313 75.722h-7.497v7.464h7.497zM603.841 83.28h7.069M607.375 79.761V86.8M807.646 85.626h7.069M811.18 82.107v7.038M625.046 256.879h7.069M628.58 253.36v7.038M859.495 303.523h7.069M863.03 300.004v7.038M940.768 338.986h7.068M944.302 335.467v7.038M1075.067 260.398h7.068M1078.601 256.879v7.038M1178.737 335.467h7.068M1182.27 331.948v7.038M830.172 178.141l4.999 4.99M835.164 178.148l-4.985 4.976M893.151 308.35l4.998 4.99M898.143 308.357l-4.985 4.977M713.544 295.722l4.998 4.99M718.536 295.729l-4.985 4.976M682.914 379.003l4.999 4.99M687.906 379.01l-4.985 4.976M1157.674 102.183l4.998 4.99M1162.666 102.19l-4.985 4.976M1129.4 374.31l4.999 4.99M1134.392 374.317l-4.985 4.977M1070.498 66.995l4.998 4.99M1075.489 67.001l-4.985 4.977"/>
        </g>
    </g>
</svg>
