<?xml version="1.0" standalone="no"?>
<!DOCTYPE svg PUBLIC "-//W3C//DTD SVG 20010904//EN"
 "http://www.w3.org/TR/2001/REC-SVG-20010904/DTD/svg10.dtd">
<svg version="1.0" xmlns="http://www.w3.org/2000/svg"
 width="260.000000pt" height="260.000000pt" viewBox="0 0 260.000000 260.000000"
 preserveAspectRatio="xMidYMid meet">
<metadata>
Created by potrace 1.11, written by Peter Selinger 2001-2013
</metadata>
<g transform="translate(0.000000,260.000000) scale(0.100000,-0.100000)"
fill="#000000" stroke="none">
<path d="M1175 2580 c-33 -11 -211 -105 -394 -210 -184 -104 -335 -190 -337
-190 -1 0 -40 -23 -86 -51 -142 -86 -205 -162 -239 -285 -16 -57 -18 -116 -18
-543 0 -359 3 -490 13 -527 47 -178 112 -237 501 -450 11 -6 117 -66 235 -134
316 -181 323 -184 450 -184 99 0 109 2 180 35 41 20 106 54 144 77 37 23 70
42 72 42 10 0 605 346 639 372 42 32 91 92 118 143 43 84 46 122 43 638 -1
271 -5 505 -10 521 -25 99 -129 236 -211 278 -16 8 -106 59 -200 112 -93 54
-190 109 -215 123 -24 14 -105 60 -180 103 -236 135 -249 140 -365 145 -59 3
-96 -1 -140 -15z m565 -539 c195 -112 364 -210 374 -219 10 -10 27 -36 38 -59
17 -39 18 -72 18 -471 l-1 -429 -28 -45 c-26 -41 -56 -60 -322 -213 -162 -93
-310 -177 -329 -188 -19 -10 -53 -30 -75 -42 -62 -36 -104 -44 -155 -30 -25 6
-142 67 -260 135 -118 68 -235 134 -260 148 -126 70 -237 136 -254 151 -10 9
-27 34 -37 56 -17 37 -19 74 -19 465 0 391 2 428 19 465 10 22 27 47 37 57 41
35 732 422 774 434 35 9 54 9 85 -1 22 -6 200 -103 395 -214z"/>
<path d="M918 1679 c-15 -4 -28 -5 -30 -3 -2 1 -28 -9 -58 -24 -90 -45 -122
-131 -115 -307 4 -119 16 -166 53 -200 37 -35 143 -66 222 -67 163 -1 226 31
246 125 28 130 28 340 0 395 -17 34 -68 64 -126 77 -47 11 -160 13 -192 4z"/>
<path d="M1495 1675 c-71 -16 -112 -40 -131 -77 -37 -71 -21 -388 22 -454 31
-47 96 -66 222 -66 75 0 191 34 226 67 34 31 47 83 51 200 6 154 -24 255 -87
293 -74 44 -203 60 -303 37z"/>
</g>
</svg>
